<?xml version="1.0" encoding="UTF-8"?>
<svg width="202px" height="57px" viewBox="0 0 202 57" version="1.1" xmlns="http://www.w3.org/2000/svg" xmlns:xlink="http://www.w3.org/1999/xlink">
    <title>Group 6</title>
    <defs>
        <polygon id="path-1" points="0 0 92 0 92 45 0 45"></polygon>
        <linearGradient x1="104.320509%" y1="34.6221495%" x2="-4.33274627%" y2="66.1225525%" id="linearGradient-3">
            <stop stop-color="#04236E" offset="0%"></stop>
            <stop stop-color="#1E65C7" offset="100%"></stop>
        </linearGradient>
        <path d="M75.1058102,21.614257 C75.5520615,20.5258186 75.3836127,19.6753898 75.1638008,19.1535357 C73.1374443,14.341434 67.0390445,16.5779513 61.6597279,18.5505044 C58.5260275,19.6991355 54.6274037,21.1277455 53.1047368,20.3850008 C52.8976276,20.2833911 52.6363938,20.0967386 52.4602129,19.5489299 C52.2774045,18.9817933 52.3160649,18.4825805 52.581717,17.9772933 C53.9304122,15.4138579 60.0851456,13.5727347 63.7623007,12.4726995 L64.6757903,12.198243 C67.2914416,11.4057979 70.2224512,11.9745912 73.324671,12.5770704 C76.9162209,13.2739802 80.6276179,13.9946358 84.141847,12.5842493 C85.882669,11.8856828 90.5296474,9.08644665 91.7016094,6.30156842 C92.1666386,5.19711542 92.0026081,4.33453763 91.7833485,3.80550464 C88.628661,-3.80859432 68.58546,2.23497248 66.3094678,2.94900134 C61.610574,4.42399832 57.6672146,7.42369266 53.4929975,10.598995 C49.831859,13.3844255 47.7088515,14.6274873 45.6543281,16.0715596 C36.0124278,22.8501399 26.7228893,26.5080882 23.7946412,27.6611372 C8.89768986,33.526887 0.746975887,32.1921556 0.0461183161,35.9445346 C-0.512800409,38.9376023 4.11153406,42.7993222 8.33048677,44.2279321 C16.8429515,47.1100022 27.6650981,41.428696 33.7358833,35.3923082 C37.1181148,32.0292488 38.1923213,29.3846361 42.1881483,28.0559791 C44.6513672,27.2370272 45.8393457,27.1067018 53.5206121,28.3083466 C58.2079078,29.0411512 63.053711,29.7993582 67.544391,27.9328326 C69.0803129,27.2944588 73.9228024,24.4996405 75.1058102,21.614257" id="path-4"></path>
        <filter x="-11.4%" y="-18.9%" width="122.8%" height="146.7%" filterUnits="objectBoundingBox" id="filter-5">
            <feMorphology radius="0.5" operator="dilate" in="SourceAlpha" result="shadowSpreadOuter1"></feMorphology>
            <feOffset dx="0" dy="2" in="shadowSpreadOuter1" result="shadowOffsetOuter1"></feOffset>
            <feGaussianBlur stdDeviation="3" in="shadowOffsetOuter1" result="shadowBlurOuter1"></feGaussianBlur>
            <feComposite in="shadowBlurOuter1" in2="SourceAlpha" operator="out" result="shadowBlurOuter1"></feComposite>
            <feColorMatrix values="0 0 0 0 0.11372549   0 0 0 0 0.615686275   0 0 0 0 0.823529412  0 0 0 1 0" type="matrix" in="shadowBlurOuter1"></feColorMatrix>
        </filter>
        <linearGradient x1="104.320509%" y1="9.24399815%" x2="-4.33274627%" y2="92.7296896%" id="linearGradient-6">
            <stop stop-color="#04236E" offset="0%"></stop>
            <stop stop-color="#1E65C7" offset="100%"></stop>
        </linearGradient>
        <path d="M84.464059,31.4468548 C96.0313459,23.4065783 104.458491,17.0384315 109.555902,12.4824039 C115.017571,7.59991819 116.794093,4.76249903 115.686392,2.68921323 C114.628992,0.710544954 111.560706,0.484790856 105.426346,1.93503961 C97.1683416,3.88714858 92.4103158,8.66782361 85.8243635,15.2844106 C85.0980571,16.0142382 84.3463244,16.7700718 83.5619797,17.5496981 C78.1141286,22.9655832 73.624184,27.0369034 70.34475,30.0093324 C63.708498,36.0261218 60.9613571,38.5171633 62.3515099,41.3662022 C63.4741342,43.668562 66.9459233,43.7471333 75.3321649,43.9369216 C76.7930689,43.9695675 78.1179978,44 79.3461964,44 C83.3972618,44 86.3876103,43.6735419 89.6510146,42.0528709 C92.1770576,40.7990503 98.4584476,36.795235 97.2147722,33.3674246 C96.4939932,31.3804566 93.8734309,30.3014848 84.464059,31.4468548" id="path-7"></path>
        <filter x="-19.4%" y="-19.8%" width="138.9%" height="148.8%" filterUnits="objectBoundingBox" id="filter-8">
            <feMorphology radius="0.5" operator="dilate" in="SourceAlpha" result="shadowSpreadOuter1"></feMorphology>
            <feOffset dx="0" dy="2" in="shadowSpreadOuter1" result="shadowOffsetOuter1"></feOffset>
            <feGaussianBlur stdDeviation="3" in="shadowOffsetOuter1" result="shadowBlurOuter1"></feGaussianBlur>
            <feComposite in="shadowBlurOuter1" in2="SourceAlpha" operator="out" result="shadowBlurOuter1"></feComposite>
            <feColorMatrix values="0 0 0 0 0.11372549   0 0 0 0 0.615686275   0 0 0 0 0.823529412  0 0 0 1 0" type="matrix" in="shadowBlurOuter1"></feColorMatrix>
        </filter>
        <linearGradient x1="104.320509%" y1="15.5464608%" x2="-4.33274627%" y2="86.1220181%" id="linearGradient-9">
            <stop stop-color="#04236E" offset="0%"></stop>
            <stop stop-color="#1E65C7" offset="100%"></stop>
        </linearGradient>
        <path d="M140.067283,13.2594436 C139.738347,14.196401 139.026478,15.3594826 137.952064,16.717328 C136.808777,18.1615518 135.369614,19.7515734 133.675345,21.4433784 C129.402483,25.710028 125.574263,28.7877377 122.297575,30.5906791 C119.120615,32.3380524 116.250001,33.2243931 113.764523,33.2243931 C112.222326,33.2243931 111.899451,32.8662256 111.895043,32.861274 C111.749033,32.6907181 111.845455,32.2137116 111.984302,31.8225332 C112.312136,30.8976798 113.011332,29.7356987 114.061503,28.3690503 C115.166221,26.9325291 116.618057,25.3127977 118.377341,23.5560714 L118.377341,23.5560714 C122.514111,19.4253164 126.309823,16.3817179 129.659791,14.5083534 C132.902318,12.6949585 135.787809,11.7756069 138.23582,11.7756069 C139.825953,11.7756069 140.151583,12.1255217 140.153236,12.1277224 C140.288226,12.2960776 140.255167,12.7202668 140.067283,13.2594436 M150.838422,15.6235692 C152.606522,13.0800848 153.611512,10.9129239 153.911246,8.9977456 C154.347072,6.21053126 153.094691,4.57814576 151.966281,3.69840716 C150.49516,2.55513211 148.227871,2 145.034382,2 C142.258536,2 139.294806,2.45004764 136.224737,3.33858912 C133.194889,4.216127 130.065314,5.50134861 126.923066,7.15904242 C123.798449,8.80793333 120.598348,10.8623073 117.412022,13.266596 C114.235613,15.6631822 111.087304,18.4140846 108.052497,21.4439286 C105.176924,24.3153205 102.868863,26.9820453 101.191675,29.3698286 C99.4037393,31.9149636 98.3888312,34.0843252 98.0890973,36.0022544 C97.6521689,38.7949705 98.905652,40.4251553 100.033511,41.3015928 C101.504632,42.4443177 103.771921,43 106.965962,43 C109.708748,43 112.654847,42.5499524 115.722712,41.6614109 C118.749254,40.7855235 121.885992,39.5003019 125.048626,37.8420579 C128.190323,36.1937172 131.407505,34.1393433 134.611463,31.7356047 C137.806605,29.3384684 140.965383,26.5864656 144.000189,23.5560714 C146.870252,20.6907315 149.1706,18.0218059 150.838422,15.6235692" id="path-10"></path>
        <filter x="-18.8%" y="-20.7%" width="137.5%" height="151.2%" filterUnits="objectBoundingBox" id="filter-11">
            <feMorphology radius="0.5" operator="dilate" in="SourceAlpha" result="shadowSpreadOuter1"></feMorphology>
            <feOffset dx="0" dy="2" in="shadowSpreadOuter1" result="shadowOffsetOuter1"></feOffset>
            <feGaussianBlur stdDeviation="3" in="shadowOffsetOuter1" result="shadowBlurOuter1"></feGaussianBlur>
            <feComposite in="shadowBlurOuter1" in2="SourceAlpha" operator="out" result="shadowBlurOuter1"></feComposite>
            <feColorMatrix values="0 0 0 0 0.11372549   0 0 0 0 0.615686275   0 0 0 0 0.823529412  0 0 0 1 0" type="matrix" in="shadowBlurOuter1"></feColorMatrix>
        </filter>
        <polygon id="path-12" points="0 0 62 0 62 41 0 41"></polygon>
        <linearGradient x1="104.320509%" y1="21.8924116%" x2="-4.33274627%" y2="79.4687524%" id="linearGradient-14">
            <stop stop-color="#04236E" offset="0%"></stop>
            <stop stop-color="#1E65C7" offset="100%"></stop>
        </linearGradient>
        <path d="M47.7428958,10.227686 C47.7350901,10.2656086 47.7222663,10.3161722 47.7005217,10.3810254 C47.6308274,10.5871268 47.3280756,11.2043318 46.028417,12.4854582 C44.7772656,13.7182194 43.5439559,14.7075061 42.3624988,15.4252886 C41.1648726,16.152964 39.9756097,16.7322464 38.8259332,17.1466476 C37.6879653,17.5577512 36.581778,17.8287058 35.5397094,17.9529163 C34.4379825,18.0842716 33.3959139,18.1513232 32.4408237,18.1513232 C32.2880539,18.1513232 32.0901222,18.1430792 31.8475862,18.1276903 C31.5704818,18.1106526 31.268845,18.0936148 30.9426759,18.0765771 C31.7717588,16.1161405 35.4917597,12.7756489 41.0003942,9.86604668 C41.106887,9.83307046 41.4536856,9.83032244 41.6833979,9.82812402 C41.8763116,9.82592561 42.0748009,9.8242768 42.277193,9.81438393 C43.8723553,9.73908822 45.5439025,9.72974495 46.8708812,9.95123526 C47.3710072,10.0353246 47.6241368,10.1523902 47.7428958,10.227686 M61.0952012,2.78715036 C60.155165,1.6055023 58.6224488,0.824515366 56.5405418,0.465074512 C53.0385446,-0.140039218 48.9198925,-0.0861780508 44.5771037,0.238088163 C44.0078409,0.280407651 43.4268696,0.282606067 42.8118874,0.284804482 C41.2133798,0.290850123 39.5613471,0.296895764 38.055951,1.04545607 C33.0273706,3.54780195 22.1400119,9.73249297 13.2336428,17.0361772 C2.45890996,25.8738055 -1.76790761,33.2956546 0.669161327,39.0961726 C1.20106793,40.36191 2.55480927,41 4.70139252,41 C5.01919836,41 5.35540348,40.9862599 5.70833522,40.9582301 C7.57614143,40.8092875 9.49022463,40.3069497 10.478768,39.9035405 C12.8204952,38.94723 14.8784274,36.2657133 17.0573488,33.4270099 C18.8660542,31.070309 20.9055871,28.4129749 22.5832674,27.7287182 C22.7365948,27.759496 22.9083214,27.7891746 23.0967747,27.8056627 C23.5082496,27.8424862 23.9576382,27.870516 24.4432678,27.8892025 C24.9227644,27.9073394 25.3838616,27.9161331 25.826002,27.9161331 L26.7253367,27.9161331 C28.7933049,27.9161331 31.0748162,27.669361 33.5090974,27.1824121 C35.9383606,26.6960128 38.4690986,25.9227203 41.0338474,24.88287 C43.596366,23.8435693 46.2079494,22.475056 48.796673,20.8158022 C51.3959902,19.148854 53.9261707,17.1087249 56.3169626,14.752024 C59.1487799,11.9611362 60.8476472,9.72644733 61.5116941,7.9204494 C62.2811188,5.82810792 62.1411727,4.10070333 61.0952012,2.78715036" id="path-15"></path>
        <filter x="-16.9%" y="-20.7%" width="133.9%" height="151.2%" filterUnits="objectBoundingBox" id="filter-16">
            <feMorphology radius="0.5" operator="dilate" in="SourceAlpha" result="shadowSpreadOuter1"></feMorphology>
            <feOffset dx="0" dy="2" in="shadowSpreadOuter1" result="shadowOffsetOuter1"></feOffset>
            <feGaussianBlur stdDeviation="3" in="shadowOffsetOuter1" result="shadowBlurOuter1"></feGaussianBlur>
            <feComposite in="shadowBlurOuter1" in2="SourceAlpha" operator="out" result="shadowBlurOuter1"></feComposite>
            <feColorMatrix values="0 0 0 0 0.11372549   0 0 0 0 0.615686275   0 0 0 0 0.823529412  0 0 0 1 0" type="matrix" in="shadowBlurOuter1"></feColorMatrix>
        </filter>
    </defs>
    <g id="Page-1" stroke="none" stroke-width="1" fill="none" fill-rule="evenodd">
        <g id="B17-Copy-6" transform="translate(-731.000000, -582.000000)">
            <g id="Group-7" transform="translate(672.000000, 576.000000)">
                <g id="Group-6" transform="translate(59.000000, 10.000000)">
                    <g id="Group-12">
                        <mask id="mask-2" fill="white">
                            <use xlink:href="#path-1"></use>
                        </mask>
                        <g id="Clip-11"></g>
                        <g id="Fill-10" mask="url(#mask-2)">
                            <use fill="black" fill-opacity="1" filter="url(#filter-5)" xlink:href="#path-4"></use>
                            <use stroke="#59E3E8" stroke-width="1" fill="url(#linearGradient-3)" fill-rule="evenodd" xlink:href="#path-4"></use>
                        </g>
                    </g>
                    <g id="Fill-13">
                        <use fill="black" fill-opacity="1" filter="url(#filter-8)" xlink:href="#path-7"></use>
                        <use stroke="#59E3E8" stroke-width="1" fill="url(#linearGradient-6)" fill-rule="evenodd" xlink:href="#path-7"></use>
                    </g>
                    <g id="Fill-15">
                        <use fill="black" fill-opacity="1" filter="url(#filter-11)" xlink:href="#path-10"></use>
                        <use stroke="#59E3E8" stroke-width="1" fill="url(#linearGradient-9)" fill-rule="evenodd" xlink:href="#path-10"></use>
                    </g>
                    <g id="Group-19" transform="translate(140.000000, 3.000000)">
                        <mask id="mask-13" fill="white">
                            <use xlink:href="#path-12"></use>
                        </mask>
                        <g id="Clip-18"></g>
                        <g id="Fill-17" mask="url(#mask-13)">
                            <use fill="black" fill-opacity="1" filter="url(#filter-16)" xlink:href="#path-15"></use>
                            <use stroke="#59E3E8" stroke-width="1" fill="url(#linearGradient-14)" fill-rule="evenodd" xlink:href="#path-15"></use>
                        </g>
                    </g>
                </g>
            </g>
        </g>
    </g>
</svg>