<?xml version="1.0" encoding="UTF-8"?><svg id="Layer_2" xmlns="http://www.w3.org/2000/svg" viewBox="0 0 477.45 198.58"><g id="Layer_1-2"><g><g><path d="M69.23,22.08c-4.32,1.07-11.56,3.48-18.63,9.27-14.13,11.6-16.49,27.68-16.88,30.79-2.29,18.05,6.77,31.5,10.49,37.03,2.75,4.08,5.55,7.16,7.68,9.28-4.41,3.95-11.12,8.45-18.83,7.9-19.73-1.39-29-34.57-30.27-39.13-6.87-24.6,.59-46.39,4.93-56.51,3.96-1.08,8.04-.02,10.49,2.78,2.12,2.43,2.28,5.31,2.28,6.27,5.23-8.94,14.63-21.25,29.81-27.01,4.91-1.86,11.94-4.54,16.6-1.04,4.5,3.39,5.45,11.56,2.33,20.38Z"/><path d="M42.32,81.7c-.89-3.22-5.28-20.32,5.01-36.88,10.41-16.76,27.97-20.27,32.25-21.12,3.91-.78,20.88-3.7,37.41,6.77,4.07,2.58,16.7,10.85,20.99,27.3,4.97,19.05-5.05,34.42-6.55,36.64-13.78,20.39-44.37,27.9-66.22,16.11-17.15-9.25-22.33-26.81-22.88-28.82Zm25.7-.6c6.18,11.61,20.82,17.11,33.05,11.52,13.03-5.95,18.08-22.07,12.17-34.3-6.7-13.88-25.52-18.69-37.81-10.01-10.01,7.07-13.42,21.49-7.41,32.79Z"/><path d="M124.37,7.56c17.55-4.22,41.45,21.43,46.47,47.13,6.59,33.72-18.3,72.7-37.99,71.9-4.62-.19-10.56-2.63-17.24-11.31,22.09-11.95,33.2-36.3,27.68-58.13-6.47-25.59-32.5-34.67-34.3-35.26,5.61-10.61,11.69-13.45,15.38-14.34Z"/><path d="M196.74,29.88c20.71,10.59,22.68,52.56,9.19,80.63-17.98,37.43-67.86,59.33-86.22,45.81-5.14-3.78-7.28-9.94-8.25-15.18,3.82-.3,41.33-3.88,59.37-34.91,12.76-21.94,8.85-45.67,7.84-51.8-1.75-10.63-5.25-18.97-8-24.43,13.53-4.67,21.67-2.36,26.08-.11Z"/></g><g><path d="M249.35,156.23c.81-1.97,.5-3.51,.1-4.46-3.67-8.71-14.71-4.66-24.45-1.09-5.67,2.08-12.73,4.67-15.49,3.32-.38-.18-.85-.52-1.17-1.51-.33-1.03-.26-1.93,.22-2.85,2.44-4.64,13.59-7.98,20.24-9.97l1.65-.5c4.74-1.43,10.04-.4,15.66,.69,6.5,1.26,13.22,2.57,19.59,.01,3.15-1.26,11.57-6.33,13.69-11.38,.84-2,.55-3.56,.15-4.52-5.71-13.79-42-2.84-46.12-1.55-8.51,2.67-15.65,8.1-23.21,13.85-6.63,5.04-10.47,7.29-14.19,9.91-17.46,12.27-34.28,18.9-39.58,20.99-26.97,10.62-41.73,8.21-43,15-1.01,5.42,7.36,12.41,15,15,15.41,5.22,35.01-5.07,46-16,6.12-6.09,8.07-10.88,15.3-13.28,4.46-1.48,6.61-1.72,20.52,.46,8.49,1.33,17.26,2.7,25.39-.68,2.78-1.16,11.55-6.22,13.69-11.44Z"/><path d="M265.87,174.72c20.93-14.53,36.17-26.04,45.39-34.27,9.88-8.82,13.09-13.95,11.09-17.7-1.91-3.58-7.46-3.98-18.56-1.36-14.94,3.53-23.55,12.17-35.46,24.13-1.31,1.32-2.67,2.69-4.09,4.09-9.86,9.79-17.98,17.15-23.91,22.52-12.01,10.87-16.98,15.38-14.46,20.52,2.03,4.16,8.31,4.3,23.48,4.65,2.64,.06,5.04,.11,7.26,.11,7.33,0,12.74-.59,18.64-3.52,4.57-2.27,15.93-9.5,13.68-15.7-1.3-3.59-6.04-5.54-23.07-3.47Z"/><path d="M386.18,145.74c3.21-4.62,5.03-8.56,5.58-12.04,.79-5.07-1.48-8.03-3.53-9.63-2.67-2.08-6.78-3.09-12.58-3.09-5.04,0-10.42,.82-15.99,2.43-5.5,1.59-11.18,3.93-16.88,6.94-5.67,3-11.48,6.73-17.26,11.1-5.76,4.36-11.48,9.36-16.99,14.86-5.22,5.22-9.41,10.07-12.45,14.41-3.25,4.63-5.09,8.57-5.63,12.05-.79,5.08,1.48,8.04,3.53,9.63,2.67,2.08,6.78,3.09,12.58,3.09,4.98,0,10.32-.82,15.89-2.43,5.49-1.59,11.19-3.93,16.93-6.94,5.7-3,11.54-6.73,17.36-11.1,5.8-4.36,11.53-9.36,17.04-14.87,5.21-5.21,9.38-10.06,12.41-14.42Zm-19.55-4.3c-.6,1.7-1.89,3.82-3.84,6.28-2.08,2.62-4.69,5.52-7.76,8.59-7.76,7.75-14.7,13.35-20.65,16.63-5.77,3.18-10.98,4.79-15.49,4.79-2.8,0-3.39-.65-3.39-.66-.27-.31-.09-1.18,.16-1.89,.59-1.68,1.86-3.79,3.77-6.28,2-2.61,4.64-5.55,7.83-8.75h0c7.51-7.51,14.4-13.04,20.48-16.44,5.89-3.3,11.12-4.97,15.57-4.97,2.89,0,3.48,.64,3.48,.64,.24,.31,.19,1.08-.16,2.06Z"/><path d="M475.82,126.46c-1.69-2.15-4.43-3.57-8.17-4.22-6.28-1.1-13.67-1-21.46-.41-1.02,.08-2.06,.08-3.17,.08-2.87,.01-5.83,.02-8.53,1.38-9.02,4.55-28.55,15.81-44.52,29.1-19.33,16.08-26.91,29.58-22.54,40.14,.95,2.3,3.38,3.46,7.23,3.46,.57,0,1.17-.03,1.81-.08,3.35-.27,6.78-1.18,8.56-1.92,4.2-1.74,7.89-6.62,11.8-11.78,3.24-4.29,6.9-9.12,9.91-10.37,.28,.06,.58,.11,.92,.14,.74,.07,1.54,.12,2.41,.15,.86,.03,1.69,.05,2.48,.05h1.61c3.71,0,7.8-.45,12.17-1.34,4.36-.88,8.9-2.29,13.5-4.18,4.6-1.89,9.28-4.38,13.92-7.4,4.66-3.03,9.2-6.74,13.49-11.03,5.08-5.08,8.13-9.14,9.32-12.43,1.38-3.81,1.13-6.95-.75-9.34Zm-23.95,13.54c-.01,.07-.04,.16-.08,.28-.13,.37-.67,1.5-3,3.83-2.24,2.24-4.46,4.04-6.57,5.35-2.15,1.32-4.28,2.38-6.34,3.13-2.04,.75-4.02,1.24-5.89,1.47-1.98,.24-3.85,.36-5.56,.36-.27,0-.63-.01-1.06-.04-.5-.03-1.04-.06-1.62-.09,1.49-3.57,8.16-9.65,18.04-14.94,.19-.06,.81-.07,1.22-.07,.35,0,.7,0,1.06-.02,2.86-.14,5.86-.15,8.24,.25,.9,.15,1.35,.37,1.56,.5Z"/></g><g><path d="M255.35,72.31c-.76-1.12-1.72-2.01-2.89-2.67-1.17-.66-2.58-.99-4.21-.99-2.85,0-5.11,1-6.79,3.01-1.68,2-2.52,5.08-2.52,9.24,0,1.68,.18,3.26,.56,4.73,.37,1.47,.94,2.77,1.69,3.89s1.72,2,2.89,2.65,2.56,.97,4.16,.97c2.88,0,5.16-.99,6.83-2.96,1.68-1.97,2.52-5.07,2.52-9.28,0-1.65-.18-3.21-.56-4.69-.37-1.47-.94-2.77-1.69-3.89Z"/><path d="M283.42,76.7c.38-.74,.58-1.65,.58-2.72,0-1.6-.56-2.86-1.69-3.78-1.13-.92-2.76-1.38-4.9-1.38h-1.27c-.43,0-.85,.02-1.27,.04-.42,.03-.8,.06-1.16,.09-.36,.03-.64,.07-.85,.13v10.77h3.65c1.07,0,2.06-.11,2.96-.33,.9-.22,1.69-.56,2.36-1.02,.67-.46,1.19-1.06,1.58-1.8Z"/><path d="M309.43,68.74c-20.15-7.71-40.16-12.62-49.3-14.84-15.53-3.77-28.81-6.17-38.68-7.73,1.77,8.36,3.28,19.26,3,32-.31,13.77-2.61,25.35-5,34,13.64-1.2,34.5-2.68,60-3,62.74-.79,93.89,6.19,96-1,2.56-8.74-40.34-29.61-66.02-39.44Zm-48.06,18.98c-.64,2-1.57,3.7-2.78,5.08s-2.69,2.43-4.43,3.16-3.7,1.09-5.9,1.09c-2.38,0-4.44-.39-6.19-1.18-1.75-.79-3.2-1.88-4.36-3.29-1.16-1.41-2.03-3.11-2.6-5.1-.58-1.99-.87-4.19-.87-6.59,0-2.55,.32-4.83,.96-6.83,.64-2,1.56-3.7,2.76-5.08,1.2-1.38,2.67-2.43,4.41-3.16,1.74-.73,3.7-1.09,5.9-1.09,2.34,0,4.4,.39,6.17,1.18,1.77,.79,3.23,1.88,4.41,3.29,1.17,1.41,2.05,3.11,2.63,5.1,.58,1.99,.87,4.19,.87,6.59,0,2.55-.32,4.83-.96,6.83Zm25.27,8.75l-9.26-13.13-4.5-.62v13.76h-4.45v-30.85c.62-.12,1.31-.22,2.07-.31,.76-.09,1.52-.16,2.29-.22,.77-.06,1.54-.1,2.32-.13,.77-.03,1.5-.04,2.18-.04,1.48,0,2.92,.15,4.3,.45,1.38,.3,2.6,.79,3.65,1.47,1.05,.68,1.9,1.57,2.54,2.67s.96,2.45,.96,4.06c0,1.25-.19,2.38-.58,3.39-.39,1.01-.92,1.9-1.6,2.67s-1.49,1.42-2.43,1.94c-.94,.52-1.95,.91-3.05,1.18l2.32,1.56,8.37,12.19h-5.12Z"/></g></g></g></svg>