<?xml version="1.0" encoding="UTF-8"?>
<svg width="258px" height="118px" viewBox="0 0 258 118" version="1.1" xmlns="http://www.w3.org/2000/svg" xmlns:xlink="http://www.w3.org/1999/xlink">
    <title>Group 24</title>
    <defs>
        <filter x="-5.0%" y="-12.0%" width="110.0%" height="124.0%" filterUnits="objectBoundingBox" id="filter-1">
            <feOffset dx="0" dy="2" in="SourceAlpha" result="shadowOffsetOuter1"></feOffset>
            <feGaussianBlur stdDeviation="2" in="shadowOffsetOuter1" result="shadowBlurOuter1"></feGaussianBlur>
            <feColorMatrix values="0 0 0 0 0.229667179   0 0 0 0 0.4278988   0 0 0 0 0.864008364  0 0 0 1 0" type="matrix" in="shadowBlurOuter1" result="shadowMatrixOuter1"></feColorMatrix>
            <feMerge>
                <feMergeNode in="shadowMatrixOuter1"></feMergeNode>
                <feMergeNode in="SourceGraphic"></feMergeNode>
            </feMerge>
        </filter>
        <polygon id="path-2" points="0 0 84 0 84 41 0 41"></polygon>
    </defs>
    <g id="Page-1" stroke="none" stroke-width="1" fill="none" fill-rule="evenodd">
        <g id="B17-Copy-6" transform="translate(-527.000000, -87.000000)">
            <g id="Group-24" filter="url(#filter-1)" transform="translate(536.000000, 96.000000)">
                <path d="M35.074746,11.193133 C32.8882654,11.7341241 29.2159659,12.9552555 25.6372613,15.8942939 C18.4785522,21.77107 17.2839175,29.9262511 17.0837284,31.5011075 C15.9254917,40.6524405 20.5142411,47.4694489 22.3991382,50.269338 C23.7926621,52.3396695 25.2095847,53.9002208 26.2898257,54.9704989 C24.0539478,56.9745069 20.6572333,59.2529118 16.7496467,58.9772144 C6.75449247,58.2697645 2.05784894,41.4535236 1.41308415,39.1426071 C-2.06942568,26.6751026 1.71076789,15.6263992 3.91154771,10.4973872 C5.91603825,9.94859334 7.98552524,10.488284 9.22565752,11.9044843 C10.3019987,13.1334185 10.3786946,14.5964353 10.3825943,15.0841076 C13.0318497,10.5520065 17.7947896,4.31370261 25.4851696,1.39026981 C27.9706339,0.446136261 31.5363392,-0.908942468 33.8944104,0.863583739 C36.1757859,2.57888973 36.6567596,6.72215348 35.074746,11.193133" id="Fill-1" fill="#FFFFFF"></path>
                <path d="M33.8726316,41.3800519 C37.0030714,47.2240561 44.4165871,49.9911134 50.6111934,47.1801551 C57.2099371,44.1858453 59.7660081,36.0731899 56.7772113,29.9154223 C53.3855766,22.9299908 43.8513147,20.5115595 37.6255209,24.8784226 C32.5523631,28.4369899 30.8266578,35.6935749 33.8726316,41.3800519 M20.8570711,41.6809032 C20.4035536,40.0630204 18.1840471,31.4532502 23.39365,23.118507 C28.6682267,14.6830498 37.5592475,12.9179694 39.726775,12.4879974 C41.7058783,12.0941791 50.3006185,10.6273676 58.6731481,15.8942022 C60.7354179,17.1918655 67.1301437,21.3560091 69.305468,29.6352303 C71.8225547,39.2224445 66.7454985,46.9593586 65.986604,48.0736705 C59.0058141,58.3361861 43.5160496,62.1142587 32.445806,56.1824524 C23.7614019,51.5289412 21.1377581,42.6893361 20.8570711,41.6809032" id="Fill-3" fill="#FFFFFF"></path>
                <path d="M62.8194865,4.22964084 C71.7413197,2.11314254 83.8945289,14.9899027 86.4501469,27.893715 C89.8015417,44.823125 77.1447753,64.3933272 67.1310318,63.9939879 C64.7802286,63.8999499 61.76019,62.6710154 58.3657449,58.3169288 C69.5966357,52.3165338 75.2453472,40.089022 72.4418643,29.1316668 C69.1543925,16.2806704 55.9171003,11.7269142 55,11.4280538 C57.8530559,6.10267099 60.9461494,4.67406684 62.8194865,4.22964084" id="Fill-5" fill="#FFFFFF"></path>
                <path d="M99.0358668,15.3113347 C109.48897,20.6414357 110.479386,41.7758158 103.674642,55.9084637 C94.6003541,74.7575921 69.4334152,85.7820909 60.1649284,78.9754253 C57.5730146,77.072556 56.490677,73.9708661 56,71.3316522 C57.9251627,71.179216 76.8531244,69.3771096 85.9597784,53.7523952 C92.3981336,42.7046434 90.4250684,30.7564844 89.9149715,27.6677128 C89.0307172,22.3156507 87.2673873,18.1146113 85.87692,15.3655917 C92.7023793,13.0144565 96.8129318,14.1771057 99.0358668,15.3113347" id="Fill-7" fill="#FFFFFF"></path>
                <g id="Group-11" transform="translate(57.000000, 59.000000)">
                    <mask id="mask-3" fill="white">
                        <use xlink:href="#path-2"></use>
                    </mask>
                    <g id="Clip-10"></g>
                    <path d="M68.575044,19.6931779 C68.9825847,18.7017907 68.8286249,17.9259786 68.6280889,17.4509389 C66.7779834,13.0671485 61.2095537,15.1054303 56.2983643,16.9010288 C53.4365226,17.9479233 49.8773335,19.25041 48.4865198,18.5727038 C48.2976279,18.4810522 48.0595724,18.3106575 47.8978499,17.8110913 C47.7309522,17.2947437 47.7671781,16.8390671 48.009115,16.3795178 C49.2407937,14.0443361 54.8609746,12.3662067 58.2170402,11.3644925 L59.0515284,11.114064 C61.4398465,10.3924683 64.1166776,10.9101067 66.9487623,11.4587259 C70.228495,12.0938334 73.6169051,12.7508856 76.8254799,11.4664712 C78.4142419,10.8300728 82.6578407,8.27931611 83.7277969,5.74146807 C84.1521568,4.73588129 84.0020783,3.9497422 83.8028361,3.46695727 C80.9228815,-3.4701716 62.6210678,2.03667465 60.5432569,2.68727252 C56.253082,4.03106693 52.6524919,6.76383616 48.8410156,9.65667311 C45.4978877,12.1945212 43.5598051,13.3279039 41.6838239,14.6432992 C32.8809439,20.8188155 24.3989213,24.1518387 21.7259716,25.2026059 C8.12316727,30.5468027 0.681343949,29.3308043 0.0422165636,32.7490249 C-0.468826589,35.4766306 3.75407176,38.9942481 7.60565522,40.2967347 C15.3786863,42.9223618 25.2592851,37.745978 30.8018392,32.245586 C33.8900924,29.1823544 34.8707777,26.7735933 38.5192377,25.5627583 C40.7691214,24.8166362 41.8533091,24.6978762 48.8668912,25.792533 C53.1467159,26.4599121 57.5714439,27.1505269 61.6714332,25.4504527 C63.0738908,24.8682709 67.4947376,22.3226777 68.575044,19.6931779" id="Fill-9" fill="#FFFFFF" mask="url(#mask-3)"></path>
                </g>
                <path d="M134.384448,88.6141609 C144.881161,81.3214556 152.527534,75.5467764 157.152419,71.4137284 C162.109307,66.9858306 163.720425,64.4120103 162.715407,62.5321817 C161.756715,60.7373315 158.972004,60.5326105 153.405156,61.8484905 C145.911915,63.6175896 141.594584,67.9540711 135.618522,73.9553598 C134.959663,74.6171625 134.27764,75.3021412 133.566021,76.0102958 C128.622001,80.9223139 124.547881,84.6150185 121.572719,87.3111564 C115.550331,92.7678098 113.057732,95.0261793 114.31883,97.6103 C115.338003,99.6987124 118.488175,99.7695279 126.098517,99.9420601 C127.423957,99.9716738 128.625861,100 129.74026,100 C133.416748,100 136.130683,99.7038626 139.09169,98.2334761 C141.383543,97.096566 147.082935,93.4643764 145.954381,90.3562213 C145.300669,88.5536459 142.922598,87.5751049 134.384448,88.6141609" id="Fill-12" fill="#FFFFFF"></path>
                <path d="M184.311232,71.4360669 C184.011265,72.304758 183.363697,73.3827722 182.385265,74.6413275 C181.343749,75.9796874 180.033164,77.452799 178.490845,79.0214143 C174.599001,82.9750052 171.112691,85.8283413 168.128471,87.4990016 C165.23437,89.1186394 162.620925,89.9402327 160.356369,89.9402327 C158.951803,89.9402327 158.658273,89.6079322 158.654411,89.6040074 C158.521807,89.4457068 158.609351,89.0035117 158.735518,88.641121 C159.034197,87.7828961 159.670178,86.7061902 160.628013,85.4397852 C161.633481,84.1079667 162.955652,82.6073814 164.558479,80.979894 L164.558479,80.9785857 C168.325445,77.1505887 171.782145,74.3299594 174.83331,72.5938856 C177.786631,70.9127591 180.414238,70.0610755 182.644035,70.0610755 C184.091085,70.0610755 184.388477,70.3855264 184.389764,70.3868347 C184.512068,70.543827 184.482458,70.9363079 184.311232,71.4360669 M194.12002,73.6274186 C195.730571,71.2699167 196.645921,69.2617228 196.918852,67.4864009 C197.316662,64.9025683 196.176016,63.3902086 195.147374,62.5751566 C193.808466,61.5154582 191.743458,61 188.835196,61 C186.30672,61 183.608306,61.417338 180.812048,62.2415479 C178.051838,63.0539833 175.201509,64.245817 172.340881,65.7817255 C169.494415,67.3097845 166.581003,69.2146251 163.679177,71.4426083 C160.786364,73.6640501 157.918012,76.2138677 155.155227,79.0214143 C152.535345,81.6824348 150.434289,84.1550644 148.906132,86.3673483 C147.278844,88.7261585 146.354483,90.7369689 146.081551,92.5149074 C145.682454,95.1026647 146.824388,96.6137162 147.851742,97.4261516 C149.191937,98.48585 151.256945,99 154.165207,99 C156.662785,99 159.345751,98.582662 162.140721,97.7597604 C164.895781,96.9473249 167.753834,95.7567996 170.633774,94.2195827 C173.494402,92.6915238 176.42455,90.7879915 179.343112,88.5600083 C182.252661,86.3385664 185.128738,83.7874406 187.892811,80.9785857 C190.506256,78.3227983 192.602162,75.8501687 194.12002,73.6274186" id="Fill-14" fill="#FFFFFF"></path>
                <path d="M227.122567,70.478899 C227.116107,70.5141861 227.104478,70.5612355 227.083805,70.6213542 C227.020494,70.8121658 226.747868,71.3846005 225.573381,72.5712916 C224.444116,73.7135471 223.329064,74.6310109 222.263111,75.2962375 C221.181652,75.9706127 220.106654,76.5077603 219.067834,76.8919973 C218.040643,77.2723135 217.041877,77.5232437 216.099961,77.6395604 C215.105071,77.7611047 214.163156,77.8225304 213.301349,77.8225304 C213.163098,77.8225304 212.984793,77.8146888 212.765142,77.8016195 C212.514481,77.7846294 212.243147,77.7689463 211.947265,77.7532631 C212.696662,75.9366325 216.057323,72.8405189 221.033065,70.1443253 C221.128678,70.1129591 221.441358,70.1103452 221.64938,70.1077313 C221.823809,70.1064244 222.003406,70.1051175 222.185587,70.095969 C223.626239,70.0253948 225.136663,70.0175533 226.334407,70.2227411 C226.78663,70.3011568 227.015326,70.4096318 227.122567,70.478899 M239.182701,63.5822373 C238.333814,62.4883381 236.948721,61.7629928 235.068766,61.4310329 C231.905791,60.8703606 228.185936,60.9200239 224.263227,61.2206174 C223.748985,61.2598253 223.224407,61.2611322 222.668819,61.2637461 C221.225583,61.2689738 219.733248,61.2742015 218.372703,61.9681806 C213.831095,64.2879787 203.997189,70.0201671 195.952793,76.7900568 C186.22096,84.9805778 182.402909,91.8589426 184.604587,97.2356465 C185.083943,98.4079614 186.307529,99 188.245626,99 C188.533756,99 188.8361,98.9869307 189.15524,98.9607921 C190.842676,98.8235647 192.571459,98.3569912 193.464276,97.9832096 C195.579386,97.0971121 197.438668,94.612641 199.406483,91.980487 C201.039653,89.7966094 202.882137,87.3343561 204.397729,86.6991888 C204.53598,86.7279413 204.691028,86.7553868 204.861581,86.7710699 C205.233695,86.80505 205.639404,86.8311886 206.077414,86.8481787 C206.510255,86.8651687 206.927592,86.8730103 207.326841,86.8730103 L208.139549,86.8730103 C210.006583,86.8730103 212.067427,86.6442978 214.266521,86.1934075 C216.460447,85.7425172 218.74611,85.0250134 221.062783,84.0618071 C223.376871,83.0986008 225.736181,81.8308801 228.074819,80.2926253 C230.422501,78.7478357 232.708163,76.8567102 234.867204,74.6728326 C237.4242,72.0851142 238.959173,70.0149394 239.558692,68.340764 C240.253823,66.4012821 240.1272,64.8002946 239.182701,63.5822373" id="Fill-16" fill="#FFFFFF"></path>
                <path d="M128.036039,36.7979883 C127.711417,36.2497904 127.297662,35.8122381 126.794773,35.4878458 C126.291884,35.1621961 125.689959,35 124.990096,35 C123.768638,35 122.796974,35.4916178 122.078404,36.473596 C121.358735,37.4555742 121,38.9643755 121,41 C121,41.8235541 121.07923,42.5968148 121.237689,43.3185247 C121.397249,44.0402347 121.63934,44.6751886 121.963961,45.2246438 C122.288583,45.7728416 122.701238,46.206622 123.205227,46.5234702 C123.708116,46.8415759 124.302338,47 124.990096,47 C126.224759,47 127.201926,46.5171836 127.921596,45.549036 C128.641265,44.5821459 129,43.0658005 129,41 C129,40.1915339 128.92077,39.4258173 128.762311,38.7041073 C128.602751,37.9823973 128.36066,37.3474434 128.036039,36.7979883" id="Fill-18" fill="#FFFFFF"></path>
                <path d="M142.687486,39.2825279 C142.894907,38.8796468 143,38.3875465 143,37.8062268 C143,36.9363383 142.695782,36.2504647 142.087347,35.75 C141.480295,35.2509294 140.599447,35 139.448951,35 L138.764462,35 C138.53215,35 138.303987,35.0083643 138.079972,35.0250929 C137.855958,35.0404275 137.648537,35.0571561 137.456326,35.0738848 C137.264116,35.0892193 137.112007,35.1143123 137,35.1463755 L137,41 L138.967735,41 C139.544365,41 140.075363,40.9400558 140.563494,40.8187732 C141.051625,40.6974907 141.476147,40.5120818 141.835676,40.2625465 C142.195206,40.0130112 142.480065,39.6854089 142.687486,39.2825279" id="Fill-20" fill="#FFFFFF"></path>
                <path d="M143.998494,49.1467055 L139.312762,42.5800583 L137.036761,42.2683382 L137.036761,49.1467055 L134.782832,49.1467055 L134.782832,33.7197668 C135.09833,33.660758 135.447586,33.6081633 135.830598,33.5632653 C136.21361,33.5196501 136.600517,33.482449 136.991319,33.4529446 C137.382121,33.4234402 137.771625,33.4003499 138.162428,33.3862391 C138.55323,33.3708455 138.920662,33.3631487 139.26732,33.3631487 C140.017764,33.3631487 140.74354,33.437551 141.440752,33.5863557 C142.139262,33.7351603 142.755976,33.9801749 143.289597,34.3213994 C143.821919,34.6639067 144.249075,35.1090379 144.572363,35.6580758 C144.895651,36.2083965 145.057944,36.8844315 145.057944,37.6861808 C145.057944,38.309621 144.95927,38.8740525 144.764518,39.3794752 C144.569766,39.884898 144.298412,40.3300292 143.953052,40.7161516 C143.607692,41.1022741 143.198712,41.4255394 142.726114,41.6859475 C142.252218,41.9450729 141.738073,42.1426239 141.182381,42.276035 L142.353489,43.0546939 L146.589993,49.1467055 L143.998494,49.1467055 Z M131.21238,44.7723615 C130.889092,45.7742274 130.420389,46.6195918 129.803675,47.3097376 C129.188259,47.9998834 128.440411,48.5271137 127.562729,48.8901458 C126.683749,49.2544606 125.687917,49.4366181 124.576533,49.4366181 C123.374264,49.4366181 122.331692,49.2390671 121.444922,48.8465306 C120.558151,48.4527114 119.823287,47.9036735 119.237733,47.1994169 C118.650881,46.4938776 118.21204,45.6446647 117.918614,44.6492128 C117.626486,43.6563265 117.479772,42.5569679 117.479772,41.3549854 C117.479772,40.0786006 117.640767,38.9394752 117.964056,37.9376093 C118.287344,36.9370262 118.752152,36.090379 119.361076,35.4002332 C119.968702,34.7100875 120.712655,34.1841399 121.591635,33.8198251 C122.470615,33.456793 123.465148,33.2746356 124.576533,33.2746356 C125.763221,33.2746356 126.803197,33.4709038 127.697757,33.864723 C128.591019,34.2585423 129.334972,34.8075802 129.928316,35.5118367 C130.520362,36.2173761 130.964396,37.0665889 131.257822,38.060758 C131.54995,39.0549271 131.696663,40.1530029 131.696663,41.3549854 C131.696663,42.6313703 131.535668,43.7704956 131.21238,44.7723615 L131.21238,44.7723615 Z M155.535598,35.2809329 C145.338387,31.4261224 135.212585,28.9708455 130.589174,27.8625073 C122.731583,25.9806414 116.007448,24.7773761 111.01271,24 C111.909867,28.1793586 112.674593,33.628688 112.530477,40.0003499 C112.375974,46.8851312 111.210059,52.6756851 110,57 C116.904605,56.3996501 127.46016,55.6594752 140.363124,55.4991254 C172.114181,55.1053061 187.8787,58.594519 188.944643,55.0001166 C190.239094,50.6309038 168.529447,40.1940525 155.535598,35.2809329 L155.535598,35.2809329 Z" id="Fill-22" fill="#FFFFFF"></path>
            </g>
        </g>
    </g>
</svg>