<?xml version="1.0" encoding="UTF-8"?>
<svg width="881px" height="498px" viewBox="0 0 881 498" version="1.1" xmlns="http://www.w3.org/2000/svg" xmlns:xlink="http://www.w3.org/1999/xlink">
    <title>Group 26</title>
    <defs>
        <filter x="-22.4%" y="-53.1%" width="143.7%" height="206.9%" filterUnits="objectBoundingBox" id="filter-1">
            <feOffset dx="0" dy="2" in="SourceAlpha" result="shadowOffsetOuter1"></feOffset>
            <feGaussianBlur stdDeviation="36" in="shadowOffsetOuter1" result="shadowBlurOuter1"></feGaussianBlur>
            <feColorMatrix values="0 0 0 0 1   0 0 0 0 1   0 0 0 0 1  0 0 0 0.7 0" type="matrix" in="shadowBlurOuter1" result="shadowMatrixOuter1"></feColorMatrix>
            <feMerge>
                <feMergeNode in="shadowMatrixOuter1"></feMergeNode>
                <feMergeNode in="SourceGraphic"></feMergeNode>
            </feMerge>
        </filter>
        <polygon id="path-2" points="0 0 99 0 99 162 0 162"></polygon>
        <linearGradient x1="74.234793%" y1="103.881058%" x2="39.8051482%" y2="15.44393%" id="linearGradient-4">
            <stop stop-color="#325FF4" offset="0%"></stop>
            <stop stop-color="#0FC6BC" offset="100%"></stop>
        </linearGradient>
        <path d="M96.455054,30.734701 C90.4414966,32.2210874 80.3441263,35.5724156 70.5003397,43.6417683 C50.8155531,59.7790818 47.530111,82.1695174 46.981144,86.495069 C43.793234,111.623072 56.4152953,130.340686 61.5970423,138.027308 C65.4300581,143.711205 69.3285599,147.996396 72.2949323,150.935767 C66.1476165,156.438737 56.8068174,162.696034 46.0615546,161.937532 C18.5755845,159.996044 5.65953332,113.820642 3.88444711,107.475664 C-5.69042926,73.2428482 4.7065043,42.9069256 10.7562879,28.8252232 C16.2682511,27.3193523 21.9613455,28.8001718 25.3707929,32.6887146 C28.3315921,36.0637026 28.5405897,40.0788944 28.5517363,41.4177556 C35.8387857,28.9727485 48.9345748,11.8459024 70.0823445,3.81969392 C76.9193524,1.22547638 86.7241261,-2.49605673 93.2086248,2.37088466 C99.4841258,7.08195032 100.806384,18.459487 96.455054,30.734701" id="path-5"></path>
        <filter x="-10.6%" y="-5.2%" width="121.2%" height="112.9%" filterUnits="objectBoundingBox" id="filter-6">
            <feMorphology radius="0.5" operator="dilate" in="SourceAlpha" result="shadowSpreadOuter1"></feMorphology>
            <feOffset dx="0" dy="2" in="shadowSpreadOuter1" result="shadowOffsetOuter1"></feOffset>
            <feGaussianBlur stdDeviation="3" in="shadowOffsetOuter1" result="shadowBlurOuter1"></feGaussianBlur>
            <feComposite in="shadowBlurOuter1" in2="SourceAlpha" operator="out" result="shadowBlurOuter1"></feComposite>
            <feColorMatrix values="0 0 0 0 0.11372549   0 0 0 0 0.615686275   0 0 0 0 0.823529412  0 0 0 1 0" type="matrix" in="shadowBlurOuter1"></feColorMatrix>
        </filter>
        <linearGradient x1="114.893216%" y1="98.515631%" x2="22.7013671%" y2="18.8849921%" id="linearGradient-7">
            <stop stop-color="#325FF4" offset="0%"></stop>
            <stop stop-color="#0FC6BC" offset="100%"></stop>
        </linearGradient>
        <path d="M94.0115254,112.263604 C102.590849,128.428865 122.901169,136.079281 139.87524,128.304978 C157.95538,120.025379 164.960949,97.5836029 156.770207,80.5539111 C147.478946,61.2316002 121.353782,54.5416625 104.293668,66.6214128 C90.39633,76.4642238 85.663963,96.5354291 94.0115254,112.263604 M58.3466864,113.096018 C57.1073891,108.619355 51.0233137,84.8064621 65.2995189,61.7549911 C79.749198,38.4223368 104.114643,33.5392112 110.053001,32.3490537 C115.4751,31.261904 139.023136,27.2028406 161.96332,41.7714816 C167.615793,45.36005 185.138041,56.8774335 191.095827,79.7771768 C197.995924,106.296112 184.081932,127.695283 182.005797,130.777164 C162.877874,159.16416 120.433677,169.613882 90.1035061,153.207805 C66.3070551,140.336008 59.1196859,115.882796 58.3466864,113.096018" id="path-8"></path>
        <filter x="-7.7%" y="-6.5%" width="115.3%" height="116.2%" filterUnits="objectBoundingBox" id="filter-9">
            <feMorphology radius="0.5" operator="dilate" in="SourceAlpha" result="shadowSpreadOuter1"></feMorphology>
            <feOffset dx="0" dy="2" in="shadowSpreadOuter1" result="shadowOffsetOuter1"></feOffset>
            <feGaussianBlur stdDeviation="3" in="shadowOffsetOuter1" result="shadowBlurOuter1"></feGaussianBlur>
            <feComposite in="shadowBlurOuter1" in2="SourceAlpha" operator="out" result="shadowBlurOuter1"></feComposite>
            <feColorMatrix values="0 0 0 0 0.11372549   0 0 0 0 0.615686275   0 0 0 0 0.823529412  0 0 0 1 0" type="matrix" in="shadowBlurOuter1"></feColorMatrix>
        </filter>
        <linearGradient x1="67.8246752%" y1="103.881058%" x2="42.5016928%" y2="15.44393%" id="linearGradient-10">
            <stop stop-color="#325FF4" offset="0%"></stop>
            <stop stop-color="#0FC6BC" offset="100%"></stop>
        </linearGradient>
        <path d="M173.259183,10.6358494 C197.518085,4.7792906 230.559572,40.404838 237.504906,76.1053982 C246.617892,122.945367 212.205034,177.090753 184.9822,175.983619 C178.589838,175.723852 170.378197,172.326048 161.151851,160.276762 C191.686991,143.675307 207.043036,109.84729 199.421693,79.5323741 C190.481511,43.9776722 154.491298,31.3769025 152.000157,30.550372 C159.755596,15.8172926 168.166307,11.8652267 173.259183,10.6358494" id="path-11"></path>
        <filter x="-12.1%" y="-5.1%" width="124.2%" height="112.6%" filterUnits="objectBoundingBox" id="filter-12">
            <feMorphology radius="0.5" operator="dilate" in="SourceAlpha" result="shadowSpreadOuter1"></feMorphology>
            <feOffset dx="0" dy="2" in="shadowSpreadOuter1" result="shadowOffsetOuter1"></feOffset>
            <feGaussianBlur stdDeviation="3" in="shadowOffsetOuter1" result="shadowBlurOuter1"></feGaussianBlur>
            <feComposite in="shadowBlurOuter1" in2="SourceAlpha" operator="out" result="shadowBlurOuter1"></feComposite>
            <feColorMatrix values="0 0 0 0 0.11372549   0 0 0 0 0.615686275   0 0 0 0 0.823529412  0 0 0 1 0" type="matrix" in="shadowBlurOuter1"></feColorMatrix>
        </filter>
        <linearGradient x1="88.772867%" y1="103.881058%" x2="33.6894158%" y2="15.44393%" id="linearGradient-13">
            <stop stop-color="#325FF4" offset="0%"></stop>
            <stop stop-color="#0FC6BC" offset="100%"></stop>
        </linearGradient>
        <path d="M273.34858,41.6201613 C302.093354,56.3378665 304.818792,114.692886 286.107074,153.718579 C261.152104,205.763032 191.942062,236.203628 166.454215,217.410957 C159.326999,212.157017 156.348999,203.591385 155.000157,196.303437 C160.294224,195.882177 212.346771,190.906297 237.389166,147.762538 C255.094803,117.257988 249.668904,84.2661927 248.265942,75.7408793 C245.834695,60.9606106 240.984691,49.3627364 237.161584,41.7717039 C255.932972,35.2790076 267.234384,38.489208 273.34858,41.6201613" id="path-14"></path>
        <filter x="-7.4%" y="-4.6%" width="114.7%" height="111.4%" filterUnits="objectBoundingBox" id="filter-15">
            <feMorphology radius="0.5" operator="dilate" in="SourceAlpha" result="shadowSpreadOuter1"></feMorphology>
            <feOffset dx="0" dy="2" in="shadowSpreadOuter1" result="shadowOffsetOuter1"></feOffset>
            <feGaussianBlur stdDeviation="3" in="shadowOffsetOuter1" result="shadowBlurOuter1"></feGaussianBlur>
            <feComposite in="shadowBlurOuter1" in2="SourceAlpha" operator="out" result="shadowBlurOuter1"></feComposite>
            <feColorMatrix values="0 0 0 0 0.11372549   0 0 0 0 0.615686275   0 0 0 0 0.823529412  0 0 0 1 0" type="matrix" in="shadowBlurOuter1"></feColorMatrix>
        </filter>
        <polygon id="path-16" points="0 0 232 0 232 113 0 113"></polygon>
        <linearGradient x1="104.320509%" y1="34.7514981%" x2="-4.33274627%" y2="65.9869399%" id="linearGradient-18">
            <stop stop-color="#04236E" offset="0%"></stop>
            <stop stop-color="#1E65C7" offset="100%"></stop>
        </linearGradient>
        <path d="M189.397261,54.2758009 C190.52259,51.5426111 190.097806,49.4070899 189.543498,48.0966564 C184.433555,36.0129343 169.054982,41.6290778 155.489749,46.5823777 C147.587374,49.4667181 137.756062,53.0541164 133.916293,51.1890021 C133.394017,50.9338489 132.735254,50.4651436 132.290972,49.0895351 C131.829977,47.665392 131.927468,46.4118133 132.597373,45.1429809 C135.998431,38.7059098 151.519063,34.082645 160.791889,31.3203344 L163.095471,30.6311435 C169.691461,28.641226 177.082703,30.0695291 184.905692,31.5824211 C193.962644,33.3324392 203.321819,35.1420854 212.183788,31.6004482 C216.573687,29.8462701 228.292154,22.8170771 231.247537,15.8239385 C232.420219,13.0505343 232.006577,10.8845056 231.453661,9.55604499 C223.498363,-9.56380352 172.954638,5.61226423 167.21518,7.40527004 C155.365795,11.1091513 145.421672,18.6417171 134.895385,26.6152542 C125.662949,33.6097796 120.309278,36.731246 115.128306,40.357472 C90.8139484,57.3792402 67.3881557,66.5647549 60.0038778,69.4601889 C22.4376527,84.1897386 1.88367832,80.8380796 0.116298362,90.2607203 C-1.29314886,97.7766457 10.3682163,107.473853 21.0073145,111.061252 C42.4735299,118.29845 69.7641605,104.032059 85.0730971,88.8740182 C93.6022026,80.4290025 96.3110711,73.7880861 106.387504,70.4516809 C112.5991,68.3952017 115.594872,68.06794 134.965022,71.0854037 C146.785159,72.9255574 159.00501,74.8294994 170.329334,70.1424463 C174.202528,68.5394187 186.414023,61.5213194 189.397261,54.2758009" id="path-19"></path>
        <filter x="-4.5%" y="-7.5%" width="109.1%" height="118.6%" filterUnits="objectBoundingBox" id="filter-20">
            <feMorphology radius="0.5" operator="dilate" in="SourceAlpha" result="shadowSpreadOuter1"></feMorphology>
            <feOffset dx="0" dy="2" in="shadowSpreadOuter1" result="shadowOffsetOuter1"></feOffset>
            <feGaussianBlur stdDeviation="3" in="shadowOffsetOuter1" result="shadowBlurOuter1"></feGaussianBlur>
            <feComposite in="shadowBlurOuter1" in2="SourceAlpha" operator="out" result="shadowBlurOuter1"></feComposite>
            <feColorMatrix values="0 0 0 0 0.11372549   0 0 0 0 0.615686275   0 0 0 0 0.823529412  0 0 0 1 0" type="matrix" in="shadowBlurOuter1"></feColorMatrix>
        </filter>
        <linearGradient x1="104.320509%" y1="9.46670813%" x2="-4.33274627%" y2="92.4961944%" id="linearGradient-21">
            <stop stop-color="#04236E" offset="0%"></stop>
            <stop stop-color="#1E65C7" offset="100%"></stop>
        </linearGradient>
        <path d="M369.576306,242.471491 C398.708732,222.277308 419.932652,206.282893 432.770576,194.839847 C446.525892,182.57686 451.000094,175.450319 448.210331,170.242996 C445.547248,165.273318 437.819714,164.706307 422.370215,168.348793 C401.572277,173.251764 389.589101,185.259041 373.002258,201.877445 C371.173042,203.710501 369.279789,205.608873 367.304402,207.567005 C353.583889,221.169693 342.27588,231.395334 334.016565,238.86097 C317.303041,253.972906 310.384316,260.229475 313.885441,267.385201 C316.712792,273.167872 325.456557,273.365214 346.577461,273.841892 C350.256775,273.923886 353.593633,274.000321 356.686874,274.000321 C366.889557,274.000321 374.420805,273.18038 382.63975,269.109857 C389.001636,265.960726 404.821433,255.904632 401.689213,247.295248 C399.873918,242.304723 393.273983,239.594748 369.576306,242.471491" id="path-22"></path>
        <filter x="-7.7%" y="-7.9%" width="115.4%" height="119.4%" filterUnits="objectBoundingBox" id="filter-23">
            <feMorphology radius="0.5" operator="dilate" in="SourceAlpha" result="shadowSpreadOuter1"></feMorphology>
            <feOffset dx="0" dy="2" in="shadowSpreadOuter1" result="shadowOffsetOuter1"></feOffset>
            <feGaussianBlur stdDeviation="3" in="shadowOffsetOuter1" result="shadowBlurOuter1"></feGaussianBlur>
            <feComposite in="shadowBlurOuter1" in2="SourceAlpha" operator="out" result="shadowBlurOuter1"></feComposite>
            <feColorMatrix values="0 0 0 0 0.11372549   0 0 0 0 0.615686275   0 0 0 0 0.823529412  0 0 0 1 0" type="matrix" in="shadowBlurOuter1"></feColorMatrix>
        </filter>
        <linearGradient x1="104.320509%" y1="15.0320128%" x2="-4.33274627%" y2="86.6613792%" id="linearGradient-24">
            <stop stop-color="#04236E" offset="0%"></stop>
            <stop stop-color="#1E65C7" offset="100%"></stop>
        </linearGradient>
        <path d="M509.919565,196.560861 C509.091351,198.937533 507.298969,201.887789 504.593747,205.33208 C501.715115,208.995477 498.091505,213.028702 493.82558,217.32011 C483.067123,228.142831 473.428212,235.949704 465.177981,240.523019 C457.17885,244.955381 449.951054,247.20366 443.692975,247.20366 C439.809942,247.20366 438.996989,246.295137 438.98589,246.282577 C438.618258,245.849947 438.861034,244.63998 439.210632,243.647722 C440.036071,241.301753 441.796546,238.354288 444.440726,234.887668 C447.222248,231.243809 450.877765,227.135223 455.307392,222.679136 L455.307392,222.679136 C465.723187,212.201123 475.280248,204.480776 483.714989,199.728827 C491.879208,195.128996 499.144461,192.796982 505.308203,192.796982 C509.311931,192.796982 510.131821,193.684571 510.135983,193.690153 C510.475869,194.117201 510.392632,195.193193 509.919565,196.560861 M537.039754,202.557667 C541.491577,196.105902 544.022,190.608713 544.776687,185.7507 C545.874036,178.680693 542.720719,174.540008 539.879543,172.308476 C536.175471,169.408461 530.466761,168.000321 522.426011,168.000321 C515.436829,168.000321 507.97458,169.141905 500.244584,171.395767 C492.61586,173.621716 484.736036,176.881791 476.824305,181.086672 C468.956967,185.269225 460.899569,190.48032 452.876854,196.579003 C444.879111,202.658149 436.952119,209.636048 429.310909,217.321506 C422.070628,224.605036 416.259258,231.369412 412.036338,237.426228 C407.534572,243.88218 404.979179,249.384951 404.224491,254.249942 C403.124368,261.333905 406.280459,265.469008 409.120248,267.692166 C412.82432,270.590785 418.533031,272.000321 426.575168,272.000321 C433.481112,272.000321 440.898967,270.858737 448.623414,268.604875 C456.243814,266.383112 464.141673,263.123038 472.104734,258.916761 C480.015079,254.735604 488.115482,249.524509 496.18259,243.427221 C504.227502,237.34668 512.180852,230.36599 519.822062,222.679136 C527.048471,215.410957 532.840419,208.640999 537.039754,202.557667" id="path-25"></path>
        <filter x="-7.4%" y="-8.2%" width="114.9%" height="120.2%" filterUnits="objectBoundingBox" id="filter-26">
            <feMorphology radius="0.5" operator="dilate" in="SourceAlpha" result="shadowSpreadOuter1"></feMorphology>
            <feOffset dx="0" dy="2" in="shadowSpreadOuter1" result="shadowOffsetOuter1"></feOffset>
            <feGaussianBlur stdDeviation="3" in="shadowOffsetOuter1" result="shadowBlurOuter1"></feGaussianBlur>
            <feComposite in="shadowBlurOuter1" in2="SourceAlpha" operator="out" result="shadowBlurOuter1"></feComposite>
            <feColorMatrix values="0 0 0 0 0.11372549   0 0 0 0 0.615686275   0 0 0 0 0.823529412  0 0 0 1 0" type="matrix" in="shadowBlurOuter1"></feColorMatrix>
        </filter>
        <polygon id="path-27" points="0 0 155 0 155 104 0 104"></polygon>
        <linearGradient x1="104.320509%" y1="21.063731%" x2="-4.33274627%" y2="80.3375634%" id="linearGradient-29">
            <stop stop-color="#04236E" offset="0%"></stop>
            <stop stop-color="#1E65C7" offset="100%"></stop>
        </linearGradient>
        <path d="M119.35724,25.9433985 C119.337725,26.0395926 119.305666,26.1678513 119.251304,26.3323571 C119.077069,26.8551509 118.320189,28.4207441 115.071042,31.6704305 C111.943164,34.7974345 108.85989,37.3068448 105.906247,39.1275614 C102.912182,40.9733721 99.9390244,42.4427712 97.064833,43.4939353 C94.2199133,44.5367347 91.454445,45.2240343 88.8492735,45.5391047 C86.0949562,45.8722986 83.4897847,46.0423809 81.1020593,46.0423809 C80.7201348,46.0423809 80.2253055,46.0214691 79.6189655,45.9824339 C78.9262045,45.9392162 78.1721126,45.8959986 77.3566897,45.852781 C79.4293971,40.8799663 88.7293993,32.4065241 102.500985,25.0260696 C102.767217,24.9424226 103.634214,24.935452 104.208495,24.9298756 C104.690779,24.9242991 105.187002,24.9201168 105.692983,24.8950227 C109.680888,24.7040286 113.859756,24.6803287 117.177203,25.2421577 C118.427518,25.4554576 119.060342,25.7524045 119.35724,25.9433985 M152.738003,7.06984482 C150.387913,4.07249363 146.556122,2.09145361 141.351355,1.1797012 C132.596361,-0.355221432 122.299731,-0.218597982 111.442759,0.603930949 C110.019602,0.711277945 108.567174,0.716854413 107.029719,0.72243088 C103.03345,0.737766165 98.9033676,0.75310145 95.1398775,2.65188858 C82.5684266,8.99930252 55.3500297,24.6872992 33.084107,43.2137178 C6.14727491,65.6311165 -4.41976903,84.4572702 1.67290332,99.1707793 C3.00266983,102.38143 6.38702317,104 11.7534813,104 C12.5479959,104 13.3885087,103.965147 14.270838,103.894047 C18.9403536,103.516241 23.7255616,102.242019 26.1969201,101.218737 C32.0512381,98.7929736 37.1960684,91.9910776 42.6433719,84.7904642 C47.1651356,78.8124912 52.2639678,72.0719363 56.4581685,70.3362608 C56.8414869,70.4143314 57.2708035,70.4896137 57.7419368,70.5314372 C58.7706241,70.624843 59.8940956,70.695943 61.1081696,70.7433429 C62.3069109,70.7893488 63.459654,70.8116547 64.565005,70.8116547 L66.8133418,70.8116547 C71.9832622,70.8116547 77.6870405,70.1856962 83.7727435,68.9505087 C89.8459014,67.7167153 96.1727465,65.7551929 102.584619,63.1175239 C108.990915,60.4812489 115.519873,57.009898 121.991683,52.8010593 C128.489976,48.5727029 134.815427,43.3977413 140.792407,37.4197683 C147.87195,30.340443 152.119118,24.671964 153.779235,20.090896 C155.702797,14.7834933 155.352932,10.4017841 152.738003,7.06984482" id="path-30"></path>
        <filter x="-6.8%" y="-8.2%" width="113.5%" height="120.2%" filterUnits="objectBoundingBox" id="filter-31">
            <feMorphology radius="0.5" operator="dilate" in="SourceAlpha" result="shadowSpreadOuter1"></feMorphology>
            <feOffset dx="0" dy="2" in="shadowSpreadOuter1" result="shadowOffsetOuter1"></feOffset>
            <feGaussianBlur stdDeviation="3" in="shadowOffsetOuter1" result="shadowBlurOuter1"></feGaussianBlur>
            <feComposite in="shadowBlurOuter1" in2="SourceAlpha" operator="out" result="shadowBlurOuter1"></feComposite>
            <feColorMatrix values="0 0 0 0 0.11372549   0 0 0 0 0.615686275   0 0 0 0 0.823529412  0 0 0 1 0" type="matrix" in="shadowBlurOuter1"></feColorMatrix>
        </filter>
        <linearGradient x1="217.579605%" y1="140.301826%" x2="20.7612457%" y2="-33.0173648%" id="linearGradient-32">
            <stop stop-color="#325FF4" offset="0%"></stop>
            <stop stop-color="#0FC6BC" offset="100%"></stop>
        </linearGradient>
        <linearGradient x1="336.571041%" y1="140.301826%" x2="0%" y2="-33.0173648%" id="linearGradient-33">
            <stop stop-color="#325FF4" offset="0%"></stop>
            <stop stop-color="#0FC6BC" offset="100%"></stop>
        </linearGradient>
        <linearGradient x1="336.571041%" y1="66.2312781%" x2="0%" y2="35.0780655%" id="linearGradient-34">
            <stop stop-color="#325FF4" offset="0%"></stop>
            <stop stop-color="#0FC6BC" offset="100%"></stop>
        </linearGradient>
    </defs>
    <g id="Page-1" stroke="none" stroke-width="1" fill="none" fill-rule="evenodd">
        <g id="B17-Copy" transform="translate(-212.000000, -141.000000)">
            <g id="Group-26" filter="url(#filter-1)" transform="translate(323.999843, 250.999679)">
                <g id="Group-3" transform="translate(0.000157, 0.000321)">
                    <mask id="mask-3" fill="white">
                        <use xlink:href="#path-2"></use>
                    </mask>
                    <g id="Clip-2"></g>
                </g>
                <g id="Fill-1">
                    <use fill="black" fill-opacity="1" filter="url(#filter-6)" xlink:href="#path-5"></use>
                    <use stroke="#FFFFFF" stroke-width="1" fill="url(#linearGradient-4)" fill-rule="evenodd" xlink:href="#path-5"></use>
                </g>
                <g id="Fill-4">
                    <use fill="black" fill-opacity="1" filter="url(#filter-9)" xlink:href="#path-8"></use>
                    <use stroke="#FFFFFF" stroke-width="1" fill="url(#linearGradient-7)" fill-rule="evenodd" xlink:href="#path-8"></use>
                </g>
                <g id="Fill-6">
                    <use fill="black" fill-opacity="1" filter="url(#filter-12)" xlink:href="#path-11"></use>
                    <use stroke="#FFFFFF" stroke-width="1" fill="url(#linearGradient-10)" fill-rule="evenodd" xlink:href="#path-11"></use>
                </g>
                <g id="Fill-8">
                    <use fill="black" fill-opacity="1" filter="url(#filter-15)" xlink:href="#path-14"></use>
                    <use stroke="#FFFFFF" stroke-width="1" fill="url(#linearGradient-13)" fill-rule="evenodd" xlink:href="#path-14"></use>
                </g>
                <g id="Group-12" transform="translate(157.000157, 163.000321)">
                    <mask id="mask-17" fill="white">
                        <use xlink:href="#path-16"></use>
                    </mask>
                    <g id="Clip-11"></g>
                    <g id="Fill-10" mask="url(#mask-17)">
                        <use fill="black" fill-opacity="1" filter="url(#filter-20)" xlink:href="#path-19"></use>
                        <use stroke="#59E3E8" stroke-width="1" fill="url(#linearGradient-18)" fill-rule="evenodd" xlink:href="#path-19"></use>
                    </g>
                </g>
                <g id="Fill-13">
                    <use fill="black" fill-opacity="1" filter="url(#filter-23)" xlink:href="#path-22"></use>
                    <use stroke="#59E3E8" stroke-width="1" fill="url(#linearGradient-21)" fill-rule="evenodd" xlink:href="#path-22"></use>
                </g>
                <g id="Fill-15">
                    <use fill="black" fill-opacity="1" filter="url(#filter-26)" xlink:href="#path-25"></use>
                    <use stroke="#59E3E8" stroke-width="1" fill="url(#linearGradient-24)" fill-rule="evenodd" xlink:href="#path-25"></use>
                </g>
                <g id="Group-19" transform="translate(509.000157, 169.000321)">
                    <mask id="mask-28" fill="white">
                        <use xlink:href="#path-27"></use>
                    </mask>
                    <g id="Clip-18"></g>
                    <g id="Fill-17" mask="url(#mask-28)">
                        <use fill="black" fill-opacity="1" filter="url(#filter-31)" xlink:href="#path-30"></use>
                        <use stroke="#59E3E8" stroke-width="1" fill="url(#linearGradient-29)" fill-rule="evenodd" xlink:href="#path-30"></use>
                    </g>
                </g>
                <path d="M354.866888,100.09449 C353.813173,98.5394422 352.468153,97.3023464 350.834616,96.3818139 C349.199685,95.4612814 347.24418,95.000321 344.969494,95.000321 C340.998549,95.000321 337.841585,96.3929214 335.506965,99.173957 C333.168164,101.956381 332.000157,106.232761 332.000157,112.000321 C332.000157,114.332892 332.258011,116.522454 332.775112,118.567619 C333.292213,120.612784 334.078317,122.413585 335.13482,123.968632 C336.189929,125.522291 337.532161,126.749668 339.167092,127.649374 C340.802023,128.550468 342.735227,129.000321 344.969494,129.000321 C348.980858,129.000321 352.157335,127.629935 354.494743,124.887776 C356.83215,122.147005 358.000157,117.851187 358.000157,112.000321 C358.000157,109.709403 357.743697,107.540667 357.226597,105.495502 C356.708102,103.448949 355.921997,101.649537 354.866888,100.09449" id="Fill-20" fill="url(#linearGradient-32)"></path>
                <path d="M393.219904,106.705873 C393.738725,105.699171 394.000157,104.468304 394.000157,103.01599 C394.000157,100.838198 393.240118,99.1250379 391.721386,97.8751511 C390.19996,96.6252643 387.999349,96.000321 385.120901,96.000321 L383.410812,96.000321 C382.828654,96.000321 382.259972,96.0206995 381.700723,96.0600981 C381.140127,96.1008553 380.619958,96.1416125 380.138869,96.1810111 C379.660475,96.2217683 379.279108,96.2815455 379.000157,96.3630598 L379.000157,111.000321 L383.9202,111.000321 C385.360772,111.000321 386.690841,110.849519 387.910408,110.546558 C389.129975,110.244955 390.190526,109.781681 391.090715,109.155379 C391.989556,108.531795 392.699735,107.713934 393.219904,106.705873" id="Fill-22" fill="url(#linearGradient-33)"></path>
                <path d="M398.387944,134.107109 L385.516073,115.797715 L379.263624,114.929291 L379.263624,134.107109 L373.075118,134.107109 L373.075118,91.0971088 C373.94112,90.932624 374.900255,90.7876543 375.953913,90.6635937 C377.004792,90.5395331 378.066791,90.4363816 379.13991,90.3527452 C380.211639,90.2705028 381.284758,90.2091694 382.357878,90.1673513 C383.430997,90.126927 384.441564,90.104624 385.392359,90.104624 C387.452414,90.104624 389.445747,90.312321 391.364017,90.726321 C393.282287,91.140321 394.973979,91.8247452 396.439093,92.7768058 C397.901426,93.7288664 399.077409,94.9708664 399.965652,96.5028058 C400.852504,98.0347452 401.297321,99.9193513 401.297321,102.15523 C401.297321,103.89626 401.027651,105.468624 400.492481,106.876503 C399.955922,108.284382 399.213634,109.527775 398.26423,110.603897 C397.314825,111.680018 396.191664,112.580503 394.891966,113.305351 C393.590879,114.031594 392.177197,114.579412 390.652311,114.951594 L393.870279,117.121957 L405.505005,134.107109 L398.387944,134.107109 Z M359.397018,128.987169 C357.705326,130.910806 355.653611,132.380018 353.240482,133.393412 C350.827354,134.406806 348.093124,134.9142 345.039182,134.9142 C341.737811,134.9142 338.871527,134.364988 336.436157,133.269351 C334.002178,132.173715 331.982434,130.641775 330.372756,128.676321 C328.763077,126.71226 327.556513,124.342563 326.751673,121.570018 C325.946834,118.798866 325.545109,115.736382 325.545109,112.385351 C325.545109,108.826624 325.988535,105.65123 326.875388,102.859169 C327.76363,100.065715 329.041087,97.7071694 330.711928,95.7835331 C332.382769,93.8598967 334.426144,92.3906846 336.839272,91.3772907 C339.2524,90.3638967 341.98524,89.8565028 345.039182,89.8565028 C348.298851,89.8565028 351.155406,90.4057149 353.611626,91.5013513 C356.066456,92.5983816 358.10705,94.128927 359.73758,96.0943816 C361.36672,98.0598361 362.584404,100.428139 363.389244,103.200685 C364.194083,105.971836 364.597198,109.034321 364.597198,112.385351 C364.597198,115.944079 364.153772,119.119472 363.265529,121.911533 C362.378677,124.704988 361.0901,127.063533 359.397018,128.987169 Z M361.552986,74.7698967 C339.969667,69.520321 321.501451,66.1651088 307.780259,64.000321 C310.246209,75.6522603 312.343796,90.8434119 311.950411,108.606382 C311.525056,127.800927 308.322379,143.946927 305.000157,156.000321 C323.964621,154.327594 352.959692,152.264563 388.403209,151.818503 C475.61778,150.720079 518.922035,160.448382 521.848092,150.424563 C525.403842,138.245715 465.77066,109.14723 430.076934,95.4517755 C402.068799,84.7045028 374.255271,77.8588664 361.552986,74.7698967 Z" id="Fill-24" fill="url(#linearGradient-34)"></path>
            </g>
        </g>
    </g>
</svg>