<?xml version="1.0" encoding="UTF-8"?><svg id="Layer_2" xmlns="http://www.w3.org/2000/svg" viewBox="0 0 470.19 133.88"><defs><style>.cls-1{fill:#fff;}</style></defs><g id="Layer_1-2"><g><path class="cls-1" d="M13.86,67.23c-10.44,0-13.86-3.87-13.86-13.86V3.24C0,1.08,1.08,0,3.15,0H35.66c2.25,0,3.24,1.08,3.24,3.24V51.48c0,2.16,1.08,3.15,3.33,3.15h7.29c1.35,0,1.98-.72,1.98-2.16-.1-5.82-.21-11.65-.31-17.47,.04-.3,.21-1.21,1-2,.21-.21,.9-.84,2-1h10c.3,.04,1.21,.21,2,1,.21,.21,.84,.9,1,2-.04,5.82-.08,11.65-.12,17.47,0,1.44,.72,2.16,2.34,2.16h6.57c1.98,0,2.97-.99,2.97-3.15V3.24c0-2.16,1.08-3.24,3.24-3.24h18.28c2.25,0,3.24,1.08,3.24,3.24V53.19c0,12.6-5.13,14.04-16.38,14.04H13.86Z"/><path class="cls-1" d="M143.32,67.23c-13.5,0-28.72-2.97-28.72-17.64V18.63c0-15.57,13.24-18.63,28.72-18.63h31.97c13.5,0,18.72,3.15,18.72,15.75V49.68c0,11.7-2.25,17.55-15.12,17.55h-35.57Zm25.84-46.98c0-6.57-.99-8.64-4.68-8.64h-7.11c-4.05,0-4.77,2.07-4.77,7.83v29.7c0,3.78,.27,6.48,4.77,6.48h7.02c3.69,0,4.77-1.62,4.77-6.48V20.25Z"/><path class="cls-1" d="M269.1,0c12.15,0,17.37,1.35,17.37,14.04v50.04c0,2.07-1.08,3.15-3.24,3.15h-19.54c-2.16,0-3.24-1.08-3.24-3.15V18.09c0-4.41-1.08-5.49-4.95-5.49h-7.38c-2.7,0-3.33,.81-3.33,3.69v47.79c0,2.07-.99,3.15-3.24,3.15h-33.14c-2.16,0-3.24-1.08-3.24-3.15V3.24c0-2.16,1.08-3.24,3.24-3.24h60.69Z"/><path class="cls-1" d="M297.9,4.86c0-3.42,1.44-4.86,4.86-4.86h60.87c11.16,0,14.04,3.87,14.04,14.22v27.63c0,8.46-.99,12.87-3.06,16.47-3.42,5.67-9.45,8.91-18.09,8.91h-53.76c-3.42,0-4.86-1.44-4.86-4.77V4.86Zm50.6,46.44c.63-1.53,.99-3.51,.99-9.54V15.93c0-2.7-.9-3.78-3.87-3.78h-9.81c-1.17,0-1.71,.63-1.71,1.8V53.28c0,1.17,.54,1.89,1.71,1.89h6.12c3.24,0,5.4-1.35,6.57-3.87Z"/><path class="cls-1" d="M469.94,64.17c0,1.98-1.08,3.06-3.15,3.06h-22.6c-2.16,0-3.15-1.08-3.15-3.06v-17.1c0-4.77-1.62-5.94-5.67-5.94h-9.63c-1.17,0-1.71,.63-1.71,2.07v20.97c0,1.98-1.08,3.06-3.15,3.06h-28.91c-2.16,0-3.24-1.08-3.24-3.06V6.03c0-4.68,1.26-6.03,6.21-6.03h57.72c11.43,0,14.31,2.88,14.31,12.87v12.69c0,4.5-2.61,7.2-2.61,8.37,0,1.44,5.58,4.23,5.58,12.15v18.09Zm-30.52-47.61c0-4.14-1.35-5.13-5.58-5.13h-8.01c-1.26,0-1.8,.63-1.8,1.89v14.67c0,1.26,.63,1.89,1.98,1.89h9.27c2.79,0,4.14-1.53,4.14-4.68v-8.64Z"/><g><path class="cls-1" d="M224.95,78.87c-1.1-.04-8.52-.18-14.01,4.93-4.56,4.25-4.75,9.29-4.75,10.5v39.57h239.73c2.5-.32,10.21-1.61,16.66-7.39,5.51-4.94,7.1-10.45,7.6-12.71v-34.91H224.95Zm70.53,39.07c-3.36,1.46-6.69,2.19-10,2.19-4.52,0-8.13-1.32-10.83-3.96-2.7-2.64-4.05-5.89-4.05-9.76,0-4.08,1.4-7.47,4.2-10.18,2.8-2.71,6.31-4.06,10.53-4.06,1.54,0,2.99,.17,4.38,.5,1.38,.33,3.12,.94,5.23,1.83v3.98c-3.26-1.89-6.48-2.83-9.69-2.83-2.98,0-5.5,1.02-7.54,3.05-2.04,2.03-3.07,4.52-3.07,7.48s1.02,5.63,3.07,7.6c2.04,1.97,4.67,2.95,7.89,2.95,1.56,0,3.43-.36,5.61-1.07l.37-.12v-5.68h-5.25v-3.48h9.16v11.56Zm29.4,1.88l-3.64-8.09h-11.64l-3.41,8.09h-4.01l11.72-27.44h2.75l12.23,27.44h-4Zm36.34,0h-3.93v-21.23l-8.39,10.55h-.72l-8.49-10.55v21.23h-3.91v-27.29h3.7l9.07,11.21,9.01-11.21h3.65v27.29Zm25.72-.04h-15.84v-27.25h15.47v3.48h-11.56v8.32h11.17v3.5h-11.17v8.48h11.93v3.48Zm19.99-1.7c-1.46,1.37-3.37,2.05-5.71,2.05-2.7,0-5.15-.83-7.36-2.49v-4.96c2.11,2.67,4.55,4.01,7.32,4.01,1.22,0,2.24-.34,3.06-1.02,.81-.68,1.22-1.53,1.22-2.56,0-1.66-1.2-3.24-3.59-4.73l-2.97-1.8c-1.86-1.14-3.19-2.26-3.97-3.36-.79-1.1-1.18-2.37-1.18-3.8,0-2.15,.75-3.89,2.24-5.23,1.49-1.34,3.43-2.01,5.81-2.01s4.37,.64,6.27,1.92v4.43c-1.97-1.89-4.08-2.84-6.35-2.84-1.28,0-2.32,.29-3.14,.89s-1.23,1.35-1.23,2.27c0,.82,.3,1.58,.91,2.3,.6,.71,1.58,1.46,2.92,2.25l2.98,1.77c3.33,1.99,4.99,4.52,4.99,7.59,0,2.19-.73,3.96-2.2,5.33Z"/><polygon class="cls-1" points="311.15 108.26 319.63 108.26 315.23 98.38 311.15 108.26"/></g></g></g></svg>